<mxfile host="65bd71144e">
    <diagram id="QrAR0vS_zr9OP95nreuY" name="Page-1">
        <mxGraphModel dx="876" dy="1573" grid="1" gridSize="10" guides="1" tooltips="1" connect="1" arrows="1" fold="1" page="1" pageScale="1" pageWidth="850" pageHeight="1100" math="0" shadow="0">
            <root>
                <mxCell id="0"/>
                <mxCell id="1" parent="0"/>
                <mxCell id="3" value="&lt;h4&gt;&lt;strong&gt;Функционал:&lt;/strong&gt;&lt;/h4&gt;&lt;ol&gt;&lt;li&gt;&lt;strong&gt;Добавление задач:&lt;/strong&gt; Пользователь может добавлять новые задачи с описанием.&lt;/li&gt;&lt;li&gt;&lt;strong&gt;Изменение статуса задачи:&lt;/strong&gt; Пометить задачу как выполненную или невыполненную.&lt;/li&gt;&lt;li&gt;&lt;strong&gt;Фильтрация задач:&lt;/strong&gt;&lt;ul&gt;&lt;li&gt;Все задачи.&lt;/li&gt;&lt;li&gt;Выполненные задачи.&lt;/li&gt;&lt;li&gt;Невыполненные задачи.&lt;/li&gt;&lt;/ul&gt;&lt;/li&gt;&lt;li&gt;&lt;strong&gt;&lt;font color=&quot;#66ff66&quot;&gt;Удаление задач.&amp;nbsp;&lt;/font&gt;&lt;/strong&gt;&lt;/li&gt;&lt;li&gt;&lt;font color=&quot;#00ff00&quot;&gt;&lt;strong&gt;Сохранение задач в Local Storage:&lt;/strong&gt; Задачи сохраняются между перезагрузками страницы.&lt;/font&gt;&lt;/li&gt;&lt;/ol&gt;&lt;h4&gt;&lt;strong&gt;Дополнительно (по желанию):&lt;/strong&gt;&lt;/h4&gt;&lt;ul&gt;&lt;li&gt;&lt;strong&gt;Анимации:&lt;/strong&gt; Добавь плавную анимацию при добавлении или удалении задач.&lt;/li&gt;&lt;li&gt;&lt;strong&gt;Темная тема:&lt;/strong&gt; Добавь возможность переключения между светлой и темной темами.&lt;/li&gt;&lt;li&gt;&lt;strong&gt;Подсчет задач:&lt;/strong&gt; Показывай количество выполненных и невыполненных задач.&lt;/li&gt;&lt;/ul&gt;&lt;h4&gt;&lt;strong&gt;Стек технологий:&lt;/strong&gt;&lt;/h4&gt;&lt;ul&gt;&lt;li&gt;Svelte&lt;/li&gt;&lt;li&gt;Tailwind CSS (если хочешь попрактиковаться в стилях) или стандартный CSS&lt;/li&gt;&lt;li&gt;Local Storage API&lt;/li&gt;&lt;/ul&gt;&lt;h3&gt;&lt;strong&gt;Структура проекта:&lt;/strong&gt;&lt;/h3&gt;&lt;ol&gt;&lt;li&gt;&lt;strong&gt;App.svelte&lt;/strong&gt; — основная логика приложения.&lt;/li&gt;&lt;li&gt;&lt;strong&gt;TaskList.svelte&lt;/strong&gt; — компонент для отображения списка задач.&lt;/li&gt;&lt;li&gt;&lt;strong&gt;TaskItem.svelte&lt;/strong&gt; — компонент для одной задачи.&lt;/li&gt;&lt;li&gt;&lt;strong&gt;Filter.svelte&lt;/strong&gt; — компонент для фильтрации задач.&lt;/li&gt;&lt;/ol&gt;&lt;h3&gt;&lt;/h3&gt;" style="text;whiteSpace=wrap;html=1;" parent="1" vertex="1">
                    <mxGeometry x="60" y="-10" width="560" height="600" as="geometry"/>
                </mxCell>
                <mxCell id="4" value="&lt;li&gt;&lt;p&gt;&lt;strong&gt;Добавь функционал фильтрации задач.&lt;/strong&gt;&lt;br&gt;Реализуй кнопки для отображения всех задач, только выполненных и только невыполненных. Подумай, как можно отслеживать текущий фильтр и фильтровать список на основе его значения.&lt;/p&gt;&lt;/li&gt;&lt;li&gt;&lt;p&gt;&lt;strong&gt;Сохрани задачи в Local Storage.&lt;/strong&gt;&lt;br&gt;Сохраняй список задач в локальном хранилище браузера, чтобы они оставались после перезагрузки страницы. Используй методы &lt;code&gt;localStorage.setItem&lt;/code&gt; и &lt;code&gt;localStorage.getItem&lt;/code&gt;.&lt;/p&gt;&lt;/li&gt;&lt;li&gt;&lt;p&gt;&lt;strong&gt;Добавь возможность редактировать задачи.&lt;/strong&gt;&lt;br&gt;Позволь пользователю изменять текст задачи. Подумай, как лучше организовать интерфейс для редактирования.&lt;/p&gt;&lt;/li&gt;&lt;li&gt;&lt;p&gt;&lt;strong&gt;Реализуй удаление задач.&lt;/strong&gt;&lt;br&gt;Добавь кнопку для удаления задачи. Позаботься, чтобы обновленный список синхронизировался с Local Storage.&lt;/p&gt;&lt;/li&gt;&lt;li&gt;&lt;p&gt;&lt;strong&gt;Добавь счетчик задач.&lt;/strong&gt;&lt;br&gt;Выводи общее количество задач, количество выполненных и невыполненных. Отображай это в интерфейсе.&lt;/p&gt;&lt;/li&gt;&lt;li&gt;&lt;p&gt;&lt;strong&gt;Поработай над стилями.&lt;/strong&gt;&lt;br&gt;Используй Tailwind CSS или CSS-модули, чтобы сделать интерфейс более привлекательным. Можешь добавить адаптивность для разных размеров экранов.&lt;/p&gt;&lt;/li&gt;&lt;li&gt;&lt;p&gt;&lt;strong&gt;Подумай над анимацией.&lt;/strong&gt;&lt;br&gt;Например, добавь анимацию появления/удаления задач. В Svelte это делается довольно просто с помощью встроенных функций анимации.&lt;/p&gt;&lt;/li&gt;" style="text;whiteSpace=wrap;html=1;" parent="1" vertex="1">
                    <mxGeometry x="40" y="590" width="560" height="650" as="geometry"/>
                </mxCell>
            </root>
        </mxGraphModel>
    </diagram>
</mxfile>